<svg viewBox="0 0 100 100" xmlns="http://www.w3.org/2000/svg">
	<path d="M100.3 72.6h-.1l-56-67.9.5-1 .1 67.6h-2V0h.1l56.5 68.6-1-.1V1.1h1.9v71.5ZM19 1.1V62q0 7.5-2.6 12.7a20.8 20.8 0 0 1-3 4.6 17.2 17.2 0 0 1-3.8 3.3Q5.2 85.3 0 85.5v-1.8a16.6 16.6 0 0 0 11.9-5.8 21.2 21.2 0 0 0 .3-.4q4.3-5 4.8-13.5a38.6 38.6 0 0 0 .1-2.3V1.1H19Z" vector-effect="non-scaling-stroke" stroke-linecap="round" fill-rule="evenodd" font-size="12" stroke-width=".9"/>
	<style>
	path {
		stroke: #000;
	}
	@media (prefers-color-scheme: dark) {
		path {
			stroke: #fff;
		}
	}
	</style>
</svg>