<svg width="1000" height="1000" xmlns="http://www.w3.org/2000/svg"><defs><linearGradient x1="4.869%" y1="50%" y2="50%" id="a"><stop stop-color="#FDBF40" offset="0%"/><stop stop-color="#FB6758" offset="100%"/></linearGradient><linearGradient x1="0%" y1="50%" y2="50%" id="b"><stop stop-color="#FB6B57" offset="0%"/><stop stop-color="#FDBF44" offset="53.603%"/><stop stop-color="#FFDF9D" offset="100%"/></linearGradient></defs><g fill="none" fill-rule="evenodd"><path d="M68.346 884.028h31.04v-32h15.36c27.84 0 48.16-13.92 48.16-40.32 0-25.12-18.24-39.68-46.56-39.68h-48v112zm31.04-56.32v-29.6h14.56c11.2 0 17.92 5.12 17.92 14.72 0 9.12-6.72 14.88-17.76 14.88h-14.72zm130.641 56.493c34.56 0 60.48-26.08 60.48-58.24 0-32.48-25.6-58.24-60.16-58.24-34.56 0-60.48 26.08-60.48 58.24 0 32.48 25.6 58.24 60.16 58.24zm.32-28c-16.96 0-28.64-14.08-28.64-30.24 0-16.48 11.36-30.24 28.32-30.24 17.12 0 28.8 14.08 28.8 30.24 0 16.48-11.36 30.24-28.48 30.24zM351.029 883.8c27.2 0 45.28-13.6 45.28-36.48 0-21.28-16-29.6-41.76-35.2-15.52-3.52-19.36-5.76-19.36-10.88 0-4.32 3.68-7.52 11.2-7.52 9.92 0 21.12 3.84 31.36 11.04l15.52-21.92c-12.16-9.76-27.04-14.88-46.08-14.88-26.88 0-43.36 15.04-43.36 35.84 0 23.36 18.4 30.08 42.24 35.52 15.2 3.52 18.88 6.08 18.88 10.72 0 5.12-4.48 8-12.8 8-12.96 0-25.28-4.64-36.32-13.44l-17.28 20.64c13.76 12.32 32.64 18.56 52.48 18.56zm86.721-1.945h31.04v-84.8h33.6v-27.2h-98.24v27.2h33.6v84.8z" fill="#FDC73E"/><path d="M516.31 881.855h31.04v-42.56h39.84v42.56h31.04v-112h-31.04v41.92h-39.84v-41.92h-31.04v112zm149.44 0h31.04v-84.8h33.6v-27.2h-98.24v27.2h33.6v84.8zm78 0h30.4v-64l28.48 43.52h.64l28.64-43.84v64.32h30.88v-112h-32.8l-26.72 43.36-26.72-43.36h-32.8v112zm135.463-.021h85.28v-27.2h-54.24v-84.8h-31.04v112z" fill="#FA5E5A"/><path d="M488.984 63.795c-67.144 0-120.838-14.199-178.01-39.643C279.92 10.332 240.254 1 206 1 92.23 1 0 93.23 0 207s92.23 206 206 206c34.194 0 76.442-8.331 104.825-23.074 52.448-27.244 110.957-39.71 178.159-39.71 67.257 0 117.053 14.247 174.3 39.772C694.165 403.758 737.841 413 771.986 413c113.771 0 206-92.23 206-206s-92.229-206-206-206c-34.206 0-80.465 8.337-108.855 23.09-52.431 27.246-106.95 39.705-174.148 39.705z" fill="url(#a)" transform="translate(12 266)"/><path d="M979 207C979 93.112 886.675.787 772.787.787c-34.242 0-59.787 0-108.969 23.114-49.181 23.114-340.721 244.73-431.158 275.87-90.437 31.14-185.856-7.817-213.125-87.011-12.782-37.123-8.32-76.497 9.341-111.063C10.535 132.519 0 168.529 0 207c0 113.888 92.325 206.213 206.213 206.213 34.23 0 66.287 0 104.934-23.098 38.647-23.098 342.869-244.817 433.306-275.957 90.436-31.14 185.855 7.816 213.124 87.01 16.401 47.633 4.413 98.973-27.424 139.105C960.623 304.33 979 257.81 979 207z" fill="url(#b)" transform="translate(12 266)"/></g></svg>