<svg xmlns="http://www.w3.org/2000/svg" viewBox="0 0 1000 1000"><defs><linearGradient id="a" x1="4.9%" y1="50%" y2="50%"><stop offset="0%" stop-color="#FDBF40"/><stop offset="100%" stop-color="#FB6758"/></linearGradient><linearGradient id="b" x1="0%" y1="50%" y2="50%"><stop offset="0%" stop-color="#FB6B57"/><stop offset="53.6%" stop-color="#FDBF44"/><stop offset="100%" stop-color="#FFDF9D"/></linearGradient></defs><g fill="none" fill-rule="evenodd"><path fill="#FDC73E" d="M68.3 884h31v-32h15.4c27.9 0 48.2-13.9 48.2-40.3 0-25.1-18.2-39.7-46.6-39.7h-48v112zm31-56.3v-29.6H114c11.2 0 18 5.1 18 14.7 0 9.1-6.8 15-17.8 15H99.4zM230 884.2c34.6 0 60.5-26 60.5-58.2a58.2 58.2 0 0 0-60.2-58.3 58.2 58.2 0 1 0-.3 116.5zm.3-28c-17 0-28.6-14-28.6-30.2 0-16.5 11.4-30.3 28.3-30.3 17.1 0 28.8 14.1 28.8 30.3 0 16.4-11.3 30.2-28.5 30.2zM351 883.8c27.2 0 45.3-13.6 45.3-36.5 0-21.3-16-29.6-41.8-35.2-15.5-3.5-19.3-5.7-19.3-10.9 0-4.3 3.7-7.5 11.2-7.5 10 0 21.1 3.9 31.3 11l15.6-21.9a70.5 70.5 0 0 0-46.1-14.8c-26.9 0-43.4 15-43.4 35.8 0 23.4 18.4 30 42.3 35.5 15.2 3.5 18.8 6.1 18.8 10.7 0 5.2-4.4 8-12.8 8-13 0-25.2-4.6-36.3-13.4l-17.3 20.6a78.2 78.2 0 0 0 52.5 18.6zm86.8-2h31v-84.7h33.6v-27.2h-98.2V797h33.6v84.8z"/><path fill="#FA5E5A" d="M516.3 881.9h31v-42.6h39.9v42.6h31v-112h-31v41.9h-39.9v-42h-31v112zm149.4 0h31V797h33.7v-27.2h-98.2V797h33.5v84.8zm78 0h30.4v-64l28.5 43.5h.7l28.6-43.9V882h30.9V770H830l-26.7 43.3-26.7-43.3h-32.9v112zm135.5 0h85.3v-27.3h-54.2v-84.8h-31v112z"/><path fill="url(#a)" d="M489 63.8c-67.2 0-120.9-14.2-178-39.6A274.2 274.2 0 0 0 206 1a206 206 0 0 0 0 412c34.2 0 76.4-8.3 104.8-23 52.5-27.3 111-39.8 178.2-39.8 67.2 0 117 14.3 174.3 39.8 30.9 13.8 74.5 23 108.7 23a206 206 0 0 0 0-412c-34.2 0-80.5 8.3-109 23-52.4 27.3-107 39.8-174.1 39.8z" transform="translate(12 266)"/><path fill="url(#b)" d="M979 207A206.2 206.2 0 0 0 772.8.8c-34.3 0-59.8 0-109 23.1S323.1 268.6 232.7 299.8c-90.5 31.1-185.9-7.8-213.2-87A141.3 141.3 0 0 1 29 101.7a206.2 206.2 0 0 0 177.3 311.5c34.2 0 66.3 0 105-23 38.6-23.2 342.8-244.9 433.3-276 90.4-31.2 185.8 7.8 213 87 16.5 47.6 4.5 99-27.3 139A205.5 205.5 0 0 0 979 207z" transform="translate(12 266)"/></g></svg>