<svg xmlns="http://www.w3.org/2000/svg" viewBox="0 0 79 79"><path fill="#13B0F5" stroke="#0C6F89" stroke-width="4" d="M37.1 76s-10.3-12.6-16-18.3A331 331 0 0 0 3.1 42a3.3 3.3 0 0 1 0-4.6s12.5-10.2 18.2-15.9A338 338 0 0 0 37 3.4a3.3 3.3 0 0 1 4.6 0s10.3 12.5 16 18.2a349 349 0 0 0 18 15.8 3.3 3.3 0 0 1 0 4.6s-12.4 10-18 15.7C52 63.4 41.7 76 41.7 76a3.3 3.3 0 0 1-4.6 0z"/><path fill="#FFF" d="M59 57.1a2.2 2.2 0 0 1-2.1 2.2h-35a2.2 2.2 0 0 1-2.1-2.2V22.2c0-1.2 1-2.2 2.2-2.2h34.9c1.2 0 2.2 1 2.2 2.2v35z" opacity=".2"/><path fill="#64EBFF" d="M23.5 41a1.8 1.8 0 0 1 0-2.6L38 23.7a1.8 1.8 0 0 1 2.6 0l14.7 14.7c.7.7.7 1.8 0 2.6L40.7 55.6a1.8 1.8 0 0 1-2.6 0L23.5 41z" opacity=".5"/><path fill="#64EBFF" d="M13.3 41.5a2.5 2.5 0 0 1 0-3.6l24.3-24.3a2.5 2.5 0 0 1 3.6 0l24.3 24.3a2.5 2.5 0 0 1 0 3.6L41.2 65.8a2.5 2.5 0 0 1-3.6 0L13.3 41.5z" opacity=".2"/><path fill="#0C6F89" d="M22.3 26.8a1 1 0 0 1-1.5 0l-5-5a1 1 0 0 1 0-1.5l5-5a1 1 0 0 1 1.5 0l5 5a1 1 0 0 1 0 1.5l-5 5zm-1 36.2a1 1 0 0 1-1.5 0l-5-5a1 1 0 0 1 0-1.5l5-5a1 1 0 0 1 1.5 0l5 5a1 1 0 0 1 0 1.5l-5 5zm37.3.1a1 1 0 0 1-1.5 0l-5-5a1 1 0 0 1 0-1.5l5-5a1 1 0 0 1 1.5 0l5 5a1 1 0 0 1 0 1.5l-5 5zM58.4 28a1 1 0 0 1-1.5 0l-5-5a1 1 0 0 1 0-1.6l5-5a1 1 0 0 1 1.5 0l5 5a1 1 0 0 1 0 1.6l-5 5z"/><path fill="#FFF" d="M29 51.8a1.6 1.6 0 0 1-1.7-1.6v-21c0-1 .7-1.7 1.6-1.7h21c1 0 1.7.8 1.7 1.7v21a1.6 1.6 0 0 1-1.7 1.6H29z" opacity=".2"/><path fill="#FFF" d="M35.2 35.5s2.2 4.2 0 8.5c0 0 4.3-2.2 8.5 0 0 0-2.1-4.3 0-8.5 0 0-4.2 2.1-8.5 0z"/></svg>