<svg xmlns="http://www.w3.org/2000/svg" viewBox="0 0 412 395"><g fill-rule="evenodd"><path d="m209 393 76-277 8 5c4 2 8 0 8-5V62l17-61h35l59 54-38 33 29 32-192 273c-1 2-2 1-2 0zm21-347 3 2v28l-3 2h-48l-3-2V48l3-2h48z"/><path d="m288 15-52 30 1 3v28l-1 4 52 30c4 2 7 1 7-4V18c0-4-3-5-7-3zM175 76V48l1-3-52-30c-4-2-7-1-7 3v88c0 5 3 6 7 4l53-30-2-4z"/><path d="M201 393h2l-76-277-8 5c-4 2-8 0-8-5V62L94 1H59L0 55l38 33-29 32 192 273z"/><circle cx="204.6" cy="122.5" r="14.2"/><circle cx="204.6" cy="207.2" r="14.2"/><circle cx="204.6" cy="291.8" r="14.2"/></g></svg>